<mxfile host="app.diagrams.net" modified="2023-10-26T05:43:17.490Z" agent="Mozilla/5.0 (X11; Linux x86_64; Chromium GOST) AppleWebKit/537.36 (KHTML, like Gecko) Chrome/110.0.0.0 Safari/537.36" version="22.0.8" etag="_ikKipzcsFSqhM4XOxl8" type="github">
  <diagram name="Страница — 1" id="a0Z8TgE_5t0AycTjX8IS">
    <mxGraphModel>
      <root>
        <mxCell id="0" />
        <mxCell id="1" parent="0" />
      </root>
    </mxGraphModel>
  </diagram>
</mxfile>
